<?xml version="1.0" encoding="UTF-8" standalone="no"?>
<!DOCTYPE svg PUBLIC "-//W3C//DTD SVG 1.1//EN"
 "http://www.w3.org/Graphics/SVG/1.1/DTD/svg11.dtd">
<!-- Generated by graphviz version 2.38.0 (20140413.2041)
 -->
<!-- Title: G Pages: 1 -->
<svg width="342pt" height="175pt"
 viewBox="0.07 0.07 342.07 175.32" xmlns="http://www.w3.org/2000/svg" xmlns:xlink="http://www.w3.org/1999/xlink">
<g id="graph0" class="graph" transform="scale(1 1) rotate(0) translate(4.072 171.323)">
<title>G</title>
<polygon fill="white" stroke="none" points="-4,4 -4,-171.251 338,-171.251 338,4 -4,4"/>
<!-- top -->
<g id="node1" class="node"><title>top</title>
<polygon fill="none" stroke="black" points="54,-91.2511 0,-91.2511 0,-55.2511 54,-55.2511 54,-91.2511"/>
<text text-anchor="middle" x="27" y="-69.5511" font-family="Times,serif" font-size="14.00">top</text>
</g>
<!-- record -->
<g id="node3" class="node"><title>record</title>
<polygon fill="none" stroke="black" points="178,-119.251 124,-119.251 124,-83.2511 178,-83.2511 178,-119.251"/>
<text text-anchor="middle" x="151" y="-97.5511" font-family="Times,serif" font-size="14.00">record</text>
</g>
<!-- top&#45;&gt;record -->
<g id="edge1" class="edge"><title>top&#45;&gt;record</title>
<path fill="none" stroke="black" d="M40.874,-91.326C48.6834,-100.676 59.537,-111.172 72,-116.251 85.2292,-121.642 100.524,-120.214 114.047,-116.602"/>
<polygon fill="black" stroke="black" points="115.482,-119.82 123.979,-113.492 113.39,-113.14 115.482,-119.82"/>
<text text-anchor="middle" x="89" y="-138.051" font-family="Times,serif" font-size="14.00">new {</text>
<text text-anchor="middle" x="89" y="-123.051" font-family="Times,serif" font-size="14.00">new{</text>
</g>
<!-- exit -->
<g id="node4" class="node"><title>exit</title>
<ellipse fill="none" stroke="black" cx="151" cy="-47.2511" rx="27" ry="18"/>
<text text-anchor="middle" x="151" y="-43.5511" font-family="Times,serif" font-size="14.00">exit</text>
</g>
<!-- top&#45;&gt;exit -->
<g id="edge8" class="edge"><title>top&#45;&gt;exit</title>
<path fill="none" stroke="black" d="M54.0542,-55.6367C59.7431,-52.6081 65.8946,-49.9064 72,-48.2511 85.4079,-44.6159 100.594,-43.7334 113.981,-43.9812"/>
<polygon fill="black" stroke="black" points="114.131,-47.4899 124.263,-44.3913 114.41,-40.4954 114.131,-47.4899"/>
<text text-anchor="middle" x="89" y="-67.0511" font-family="Times,serif" font-size="14.00">exit</text>
<text text-anchor="middle" x="89" y="-52.0511" font-family="Times,serif" font-size="14.00">quit</text>
</g>
<!-- text -->
<g id="node2" class="node"><title>text</title>
<polygon fill="none" stroke="black" points="334,-66.2511 280,-66.2511 280,-30.2511 334,-30.2511 334,-66.2511"/>
<text text-anchor="middle" x="307" y="-44.5511" font-family="Times,serif" font-size="14.00">text</text>
</g>
<!-- text&#45;&gt;top -->
<g id="edge6" class="edge"><title>text&#45;&gt;top</title>
<path fill="none" stroke="black" d="M279.832,-33.4983C244.251,-15.3787 178.764,11.0635 124,-5.25107 97.1804,-13.2409 71.5695,-32.1572 53.5562,-48.0152"/>
<polygon fill="black" stroke="black" points="50.8801,-45.7181 45.8373,-55.0359 55.5901,-50.8965 50.8801,-45.7181"/>
<text text-anchor="middle" x="151" y="-9.05107" font-family="Times,serif" font-size="14.00">}</text>
</g>
<!-- text&#45;&gt;text -->
<g id="edge4" class="edge"><title>text&#45;&gt;text</title>
<path fill="none" stroke="black" d="M292.889,-66.4038C290.718,-75.7901 295.422,-84.2511 307,-84.2511 314.055,-84.2511 318.558,-81.1092 320.508,-76.5306"/>
<polygon fill="black" stroke="black" points="324.01,-76.5941 321.111,-66.4038 317.023,-76.1781 324.01,-76.5941"/>
<text text-anchor="middle" x="307" y="-88.0511" font-family="Times,serif" font-size="14.00">&lt;text&gt;</text>
</g>
<!-- text&#45;&gt;record -->
<g id="edge5" class="edge"><title>text&#45;&gt;record</title>
<path fill="none" stroke="black" d="M279.772,-40.3903C256.294,-34.9397 221.71,-30.9489 196,-45.2511 182.743,-52.6255 187.313,-62.2765 178,-74.2511 177.71,-74.6235 177.416,-74.9965 177.118,-75.3697"/>
<polygon fill="black" stroke="black" points="174.312,-73.2647 170.443,-83.1277 179.618,-77.8305 174.312,-73.2647"/>
<text text-anchor="middle" x="229" y="-64.0511" font-family="Times,serif" font-size="14.00">tags:&lt;xxx&gt;</text>
<text text-anchor="middle" x="229" y="-49.0511" font-family="Times,serif" font-size="14.00">time:&lt;yyy&gt;</text>
</g>
<!-- record&#45;&gt;top -->
<g id="edge7" class="edge"><title>record&#45;&gt;top</title>
<path fill="none" stroke="black" d="M123.871,-95.2543C106.432,-91.2519 83.2678,-85.9355 64.0775,-81.5312"/>
<polygon fill="black" stroke="black" points="64.7016,-78.0835 54.1721,-79.2578 63.1357,-84.9061 64.7016,-78.0835"/>
<text text-anchor="middle" x="89" y="-94.0511" font-family="Times,serif" font-size="14.00">}</text>
</g>
<!-- record&#45;&gt;text -->
<g id="edge2" class="edge"><title>record&#45;&gt;text</title>
<path fill="none" stroke="black" d="M178.245,-99.0915C201.12,-96.4968 234.799,-90.9309 262,-79.2511 266.709,-77.2291 271.42,-74.6506 275.916,-71.847"/>
<polygon fill="black" stroke="black" points="277.883,-74.7418 284.239,-66.265 273.984,-68.9281 277.883,-74.7418"/>
<text text-anchor="middle" x="229" y="-100.051" font-family="Times,serif" font-size="14.00">text:&lt;text&gt;</text>
</g>
<!-- record&#45;&gt;record -->
<g id="edge3" class="edge"><title>record&#45;&gt;record</title>
<path fill="none" stroke="black" d="M139.784,-119.404C138.058,-128.79 141.797,-137.251 151,-137.251 156.608,-137.251 160.187,-134.109 161.737,-129.531"/>
<polygon fill="black" stroke="black" points="165.24,-129.558 162.216,-119.404 158.247,-129.227 165.24,-129.558"/>
<text text-anchor="middle" x="151" y="-156.051" font-family="Times,serif" font-size="14.00">tags:&lt;xxx&gt;</text>
<text text-anchor="middle" x="151" y="-141.051" font-family="Times,serif" font-size="14.00">time:&lt;yyy&gt;</text>
</g>
</g>
</svg>
